# xmcd CD database file
#
# Track frame offsets:
#	150
#	46682
#	87935
#	136230
#	180334
#	221080
#	264447
#	299822
#
# Disc length: 4634 seconds
#
# Revision: 2
# Processed by: cddbd v1.5.1PL0 Copyright (c) Steve Scherf et al.
# Submitted via: CDex 1.51
#
DISCID=72121808
DTITLE=野中政宏・モンスター前塚・他 - THE KING OF FIGHTERS'96 ドラマCD
DYEAR=1900
DGENRE=ゲーム関連
TTITLE0=ストーリーＩ ROUND1 「草薙 京  敗北す!」
TTITLE1=ストーリーＩ ROUND2 「レオナ 戦う理由」
TTITLE2=ストーリーＩ ROUND3 「アテナ 行っきま〜す」
TTITLE3=ストーリーＩ FINAL ROUND 「八神 呪われた血の暴走」
TTITLE4=ストーリーＩI ROUND1 「草薙 京 敗北す!」
TTITLE5=ストーリーＩI ROUND2 「チョイ・ボンゲの憂鬱」
TTITLE6=ストーリーＩI ROUND3 「バー・イリュージョンの死闘」
TTITLE7=ストーリーＩI FINAL  ROUND 「出るか!? 草薙最後の神拳!」
EXTD=
EXTT0=
EXTT1=
EXTT2=
EXTT3=
EXTT4=
EXTT5=
EXTT6=
EXTT7=
PLAYORDER=
